<svg width="180" height="80" viewBox="0 0 180 80" fill="none" xmlns="http://www.w3.org/2000/svg">
<rect width="180" height="80" fill="#D9D9D9"/>
<path d="M98 53.3333H79.3334C78.6261 53.3333 77.9478 53.0524 77.4477 52.5523C76.9476 52.0522 76.6667 51.3739 76.6667 50.6667V32" stroke="#555555" stroke-width="2.66667" stroke-linecap="round" stroke-linejoin="round"/>
<path d="M103.333 41.3331L101.605 39.6051C101.003 39.0025 100.185 38.6641 99.3334 38.6641C98.4812 38.6641 97.664 39.0025 97.0614 39.6051L88.6667 47.9997" stroke="#555555" stroke-width="2.66667" stroke-linecap="round" stroke-linejoin="round"/>
<path d="M90 37.3333C91.4727 37.3333 92.6666 36.1394 92.6666 34.6667C92.6666 33.1939 91.4727 32 90 32C88.5272 32 87.3333 33.1939 87.3333 34.6667C87.3333 36.1394 88.5272 37.3333 90 37.3333Z" stroke="#555555" stroke-width="2.66667" stroke-linecap="round" stroke-linejoin="round"/>
<path d="M100.667 26.6665H84.6667C83.1939 26.6665 82 27.8604 82 29.3332V45.3332C82 46.8059 83.1939 47.9998 84.6667 47.9998H100.667C102.139 47.9998 103.333 46.8059 103.333 45.3332V29.3332C103.333 27.8604 102.139 26.6665 100.667 26.6665Z" stroke="#555555" stroke-width="2.66667" stroke-linecap="round" stroke-linejoin="round"/>
</svg>
